<svg width="194" height="32" viewBox="0 0 194 32" fill="none" xmlns="http://www.w3.org/2000/svg">
<g clip-path="url(#clip0_105_71)">
<rect width="31.9995" height="31.9995" rx="1.04346" fill="white"/>
<path d="M10.5603 4.17383L26.1164 11.2448V12.5804L5.88312 27.8371V24.9203L22.8216 12.276L10.5603 6.69778V4.17383Z" fill="#32AFA9"/>
</g>
<rect x="0.399993" y="0.399993" width="31.1995" height="31.1995" rx="2.79995" stroke="#9CA3AF" stroke-width="0.799987"/>
<path d="M66.8932 1.06833V30.8974C66.8932 31.491 66.5964 31.7878 66.0028 31.7878H63.5986C63.3612 31.7878 63.1534 31.7433 62.9753 31.6543C62.8269 31.5355 62.6934 31.3575 62.5746 31.12L49.3074 6.01016C49.0403 5.50559 48.7583 4.97134 48.4615 4.40741C48.1647 3.84347 47.8976 3.27954 47.6601 2.71561H46.6361C46.6658 3.27954 46.6806 3.84347 46.6806 4.40741C46.6806 4.97134 46.6806 5.52043 46.6806 6.05468V31.7878H44.8553V1.95875C44.8553 1.36514 45.1521 1.06833 45.7457 1.06833H47.9718C48.2389 1.06833 48.4466 1.12769 48.5951 1.24641C48.7731 1.33546 48.9215 1.4987 49.0403 1.73615L61.9514 26.2672C62.2778 26.8608 62.6043 27.4841 62.9308 28.1371C63.287 28.7901 63.6283 29.4431 63.9548 30.096H65.0678C65.0678 29.3837 65.0678 28.6862 65.0678 28.0035C65.0678 27.2912 65.0678 26.5937 65.0678 25.9111V1.06833H66.8932Z" fill="#9CA3AF"/>
<path d="M99.349 0.534241V19.8118C99.349 22.6909 98.9928 25.006 98.2805 26.7571C97.5978 28.5083 96.4848 29.7845 94.9414 30.5859C93.398 31.3873 91.3352 31.788 88.753 31.788C86.1114 31.788 84.0041 31.3873 82.431 30.5859C80.8876 29.7845 79.7598 28.5083 79.0474 26.7571C78.3648 25.006 78.0234 22.6909 78.0234 19.8118V0.534241H79.8488V19.8118C79.8488 22.3347 80.1308 24.353 80.6947 25.8667C81.2883 27.3804 82.2233 28.4786 83.4995 29.1613C84.8055 29.8142 86.5418 30.1407 88.7085 30.1407C90.8455 30.1407 92.5521 29.8142 93.8284 29.1613C95.1343 28.4786 96.0693 27.3804 96.6332 25.8667C97.2268 24.353 97.5236 22.3347 97.5236 19.8118V0.534241H99.349Z" fill="#9CA3AF"/>
<path d="M120.853 0.26712C122.96 0.26712 124.726 0.549088 126.151 1.11302C127.605 1.64727 128.777 2.53769 129.668 3.78428C130.558 5.00119 131.211 6.61878 131.627 8.63707C132.042 10.6257 132.25 13.0892 132.25 16.0276C132.25 18.9363 132.042 21.3998 131.627 23.418C131.211 25.4363 130.558 27.0688 129.668 28.3154C128.777 29.5323 127.605 30.4227 126.151 30.9866C124.726 31.5209 122.96 31.788 120.853 31.788C118.864 31.788 117.009 31.7435 115.288 31.6544C113.596 31.5951 111.993 31.506 110.479 31.3873L111.325 30.0072C112.72 30.0368 114.189 30.0665 115.733 30.0962C117.276 30.1259 118.983 30.1407 120.853 30.1407C123.197 30.1407 125.052 29.6955 126.418 28.8051C127.813 27.9147 128.807 26.4455 129.401 24.3975C130.024 22.3199 130.336 19.5299 130.336 16.0276C130.336 12.5252 130.024 9.7501 129.401 7.70213C128.807 5.62448 127.813 4.14045 126.418 3.25003C125.052 2.35961 123.197 1.9144 120.853 1.9144C118.983 1.9144 117.276 1.92924 115.733 1.95892C114.189 1.9886 112.69 2.01828 111.236 2.04796L110.479 0.66781C111.993 0.549088 113.611 0.460047 115.332 0.400684C117.054 0.311642 118.894 0.26712 120.853 0.26712ZM112.305 0.66781V31.3873H110.479V0.66781H112.305Z" fill="#9CA3AF"/>
<path d="M155.223 0C156.499 0 157.627 0.0296803 158.606 0.0890409C159.586 0.148403 160.491 0.237446 161.322 0.356169C162.183 0.44521 163.044 0.593613 163.904 0.801378L163.593 2.13701C162.673 2.01828 161.782 1.92924 160.922 1.86988C160.09 1.78084 159.215 1.72148 158.295 1.6918C157.404 1.66212 156.395 1.64728 155.267 1.64728C153.427 1.64728 151.869 1.88472 150.593 2.35961C149.316 2.8345 148.292 3.62104 147.521 4.71923C146.749 5.78773 146.185 7.24208 145.829 9.08229C145.502 10.9225 145.339 13.2079 145.339 15.9385C145.339 19.2924 145.606 22.0231 146.141 24.1304C146.704 26.208 147.595 27.7366 148.812 28.7161C150.058 29.6658 151.706 30.1407 153.754 30.1407C155.149 30.1407 156.38 29.933 157.449 29.5174C158.517 29.0722 159.497 28.5231 160.387 27.8702C161.278 27.2172 162.109 26.5494 162.88 25.8667L163.192 27.1133C162.48 27.9444 161.619 28.7161 160.61 29.4284C159.63 30.1407 158.547 30.7195 157.36 31.1647C156.173 31.5802 154.867 31.788 153.442 31.788C151.038 31.788 149.094 31.2389 147.61 30.1407C146.155 29.0129 145.087 27.2765 144.404 24.9318C143.722 22.587 143.38 19.5596 143.38 15.8495C143.38 11.9019 143.751 8.77064 144.493 6.45555C145.265 4.14045 146.512 2.49318 148.233 1.51371C149.984 0.504571 152.314 0 155.223 0ZM164.483 13.4453V31.2537H163.192L162.791 26.8016L162.658 26.1784V13.4453H164.483Z" fill="#9CA3AF"/>
<path d="M180.511 1.06851C181.965 1.06851 183.419 1.06851 184.874 1.06851C186.358 1.06851 187.827 1.08335 189.281 1.11304C190.736 1.14272 192.175 1.18724 193.6 1.2466L193.511 2.62675H180.822C179.813 2.62675 178.997 2.95324 178.374 3.60621C177.75 4.2295 177.439 5.06056 177.439 6.09939V26.7571C177.439 27.796 177.75 28.6419 178.374 29.2948C178.997 29.9181 179.813 30.2298 180.822 30.2298H193.511L193.6 31.6099C192.175 31.6693 190.736 31.7138 189.281 31.7435C187.827 31.7732 186.358 31.788 184.874 31.788C183.419 31.788 181.965 31.788 180.511 31.788C179.056 31.788 177.869 31.3428 176.949 30.4524C176.059 29.562 175.613 28.4341 175.613 27.0688V5.78774C175.613 4.39275 176.059 3.26488 176.949 2.40414C177.869 1.51372 179.056 1.06851 180.511 1.06851ZM176.37 14.6029L191.686 14.6474V16.1166L176.37 16.1611V14.6029Z" fill="#9CA3AF"/>
<defs>
<clipPath id="clip0_105_71">
<rect width="31.9995" height="31.9995" rx="3.19995" fill="white"/>
</clipPath>
</defs>
</svg>
