<svg width="194" height="32" viewBox="0 0 194 32" fill="none" xmlns="http://www.w3.org/2000/svg">
<rect x="0.17391" y="0.17391" width="31.6517" height="31.6517" rx="0.869551" fill="white" stroke="#9CA3AF" stroke-width="0.34782"/>
<path d="M10.5603 4.17383L26.1164 11.2448V12.5804L5.88312 27.8371V24.9203L22.8216 12.276L10.5603 6.69778V4.17383Z" fill="#32AFA9"/>
<path d="M66.8372 1.06833V30.8974C66.8372 31.491 66.5404 31.7878 65.9467 31.7878H63.5426C63.3052 31.7878 63.0974 31.7433 62.9193 31.6543C62.7709 31.5355 62.6373 31.3575 62.5186 31.12L49.2514 6.01016C48.9842 5.50559 48.7023 4.97134 48.4055 4.40741C48.1087 3.84347 47.8415 3.27954 47.6041 2.71561H46.5801C46.6098 3.27954 46.6246 3.84347 46.6246 4.40741C46.6246 4.97134 46.6246 5.52043 46.6246 6.05468V31.7878H44.7993V1.95875C44.7993 1.36514 45.0961 1.06833 45.6897 1.06833H47.9157C48.1829 1.06833 48.3906 1.12769 48.539 1.24641C48.7171 1.33546 48.8655 1.4987 48.9842 1.73615L61.8953 26.2672C62.2218 26.8608 62.5483 27.4841 62.8748 28.1371C63.231 28.7901 63.5723 29.4431 63.8988 30.096H65.0118C65.0118 29.3837 65.0118 28.6862 65.0118 28.0035C65.0118 27.2912 65.0118 26.5937 65.0118 25.9111V1.06833H66.8372Z" fill="#9CA3AF"/>
<path d="M99.293 0.534241V19.8118C99.293 22.6909 98.9368 25.006 98.2245 26.7571C97.5418 28.5083 96.4288 29.7845 94.8854 30.5859C93.342 31.3873 91.2792 31.788 88.697 31.788C86.0554 31.788 83.9481 31.3873 82.375 30.5859C80.8316 29.7845 79.7037 28.5083 78.9914 26.7571C78.3087 25.006 77.9674 22.6909 77.9674 19.8118V0.534241H79.7928V19.8118C79.7928 22.3347 80.0747 24.353 80.6387 25.8667C81.2323 27.3804 82.1672 28.4786 83.4435 29.1613C84.7494 29.8142 86.4858 30.1407 88.6525 30.1407C90.7895 30.1407 92.4961 29.8142 93.7724 29.1613C95.0783 28.4786 96.0133 27.3804 96.5772 25.8667C97.1708 24.353 97.4676 22.3347 97.4676 19.8118V0.534241H99.293Z" fill="#9CA3AF"/>
<path d="M120.797 0.26712C122.904 0.26712 124.67 0.549088 126.095 1.11302C127.549 1.64727 128.721 2.53769 129.612 3.78428C130.502 5.00119 131.155 6.61878 131.571 8.63707C131.986 10.6257 132.194 13.0892 132.194 16.0276C132.194 18.9363 131.986 21.3998 131.571 23.418C131.155 25.4363 130.502 27.0688 129.612 28.3154C128.721 29.5323 127.549 30.4227 126.095 30.9866C124.67 31.5209 122.904 31.788 120.797 31.788C118.808 31.788 116.953 31.7435 115.231 31.6544C113.54 31.5951 111.937 31.506 110.423 31.3873L111.269 30.0072C112.664 30.0368 114.133 30.0665 115.677 30.0962C117.22 30.1259 118.927 30.1407 120.797 30.1407C123.141 30.1407 124.996 29.6955 126.362 28.8051C127.757 27.9147 128.751 26.4455 129.345 24.3975C129.968 22.3199 130.28 19.5299 130.28 16.0276C130.28 12.5252 129.968 9.7501 129.345 7.70213C128.751 5.62448 127.757 4.14045 126.362 3.25003C124.996 2.35961 123.141 1.9144 120.797 1.9144C118.927 1.9144 117.22 1.92924 115.677 1.95892C114.133 1.9886 112.634 2.01828 111.18 2.04796L110.423 0.66781C111.937 0.549088 113.555 0.460047 115.276 0.400684C116.997 0.311642 118.838 0.26712 120.797 0.26712ZM112.249 0.66781V31.3873H110.423V0.66781H112.249Z" fill="#9CA3AF"/>
<path d="M155.167 0C156.443 0 157.571 0.0296803 158.55 0.0890409C159.53 0.148403 160.435 0.237446 161.266 0.356169C162.127 0.44521 162.988 0.593613 163.848 0.801378L163.537 2.13701C162.617 2.01828 161.726 1.92924 160.865 1.86988C160.034 1.78084 159.159 1.72148 158.239 1.6918C157.348 1.66212 156.339 1.64728 155.211 1.64728C153.371 1.64728 151.813 1.88472 150.537 2.35961C149.26 2.8345 148.236 3.62104 147.465 4.71923C146.693 5.78773 146.129 7.24208 145.773 9.08229C145.446 10.9225 145.283 13.2079 145.283 15.9385C145.283 19.2924 145.55 22.0231 146.085 24.1304C146.648 26.208 147.539 27.7366 148.756 28.7161C150.002 29.6658 151.65 30.1407 153.698 30.1407C155.093 30.1407 156.324 29.933 157.393 29.5174C158.461 29.0722 159.441 28.5231 160.331 27.8702C161.222 27.2172 162.053 26.5494 162.824 25.8667L163.136 27.1133C162.424 27.9444 161.563 28.7161 160.554 29.4284C159.574 30.1407 158.491 30.7195 157.304 31.1647C156.117 31.5802 154.811 31.788 153.386 31.788C150.982 31.788 149.038 31.2389 147.554 30.1407C146.099 29.0129 145.031 27.2765 144.348 24.9318C143.666 22.587 143.324 19.5596 143.324 15.8495C143.324 11.9019 143.695 8.77064 144.437 6.45555C145.209 4.14045 146.456 2.49318 148.177 1.51371C149.928 0.504571 152.258 0 155.167 0ZM164.427 13.4453V31.2537H163.136L162.735 26.8016L162.602 26.1784V13.4453H164.427Z" fill="#9CA3AF"/>
<path d="M180.455 1.06851C181.909 1.06851 183.364 1.06851 184.818 1.06851C186.302 1.06851 187.771 1.08335 189.225 1.11304C190.68 1.14272 192.119 1.18724 193.544 1.2466L193.455 2.62675H180.766C179.757 2.62675 178.941 2.95324 178.318 3.60621C177.695 4.2295 177.383 5.06056 177.383 6.09939V26.7571C177.383 27.796 177.695 28.6419 178.318 29.2948C178.941 29.9181 179.757 30.2298 180.766 30.2298H193.455L193.544 31.6099C192.119 31.6693 190.68 31.7138 189.225 31.7435C187.771 31.7732 186.302 31.788 184.818 31.788C183.364 31.788 181.909 31.788 180.455 31.788C179 31.788 177.813 31.3428 176.893 30.4524C176.003 29.562 175.557 28.4341 175.557 27.0688V5.78774C175.557 4.39275 176.003 3.26488 176.893 2.40414C177.813 1.51372 179 1.06851 180.455 1.06851ZM176.314 14.6029L191.63 14.6474V16.1166L176.314 16.1611V14.6029Z" fill="#9CA3AF"/>
</svg>
